<svg width="124" height="20" viewBox="0 0 124 20" fill="none" xmlns="http://www.w3.org/2000/svg">
<path d="M10.7212 2.49664C10.4 1.94318 9.60079 1.94318 9.27964 2.49664L7.01793 6.39439C6.85928 6.6678 6.58507 6.85437 6.27252 6.90158L2.03393 7.54177C1.32203 7.64929 1.07231 8.54813 1.62673 9.00747L4.78431 11.6235C5.07659 11.8656 5.21402 12.2476 5.14302 12.6205L4.31705 16.9581C4.18648 17.6438 4.9063 18.1765 5.52393 17.8513L9.5151 15.7498C9.81888 15.5899 10.182 15.5899 10.4857 15.7498L14.4769 17.8513C15.0945 18.1765 15.8144 17.6438 15.6838 16.9581L14.8578 12.6205C14.7868 12.2476 14.9242 11.8656 15.2165 11.6235L18.3741 9.00747C18.9285 8.54814 18.6788 7.64929 17.9669 7.54177L13.7283 6.90158C13.4158 6.85437 13.1416 6.6678 12.9829 6.3944L10.7212 2.49664Z" fill="#299764"/>
<path d="M36.7212 2.49664C36.4 1.94318 35.6008 1.94318 35.2796 2.49664L33.0179 6.39439C32.8593 6.6678 32.5851 6.85437 32.2725 6.90158L28.0339 7.54177C27.322 7.64929 27.0723 8.54813 27.6267 9.00747L30.7843 11.6235C31.0766 11.8656 31.214 12.2476 31.143 12.6205L30.317 16.9581C30.1865 17.6438 30.9063 18.1765 31.5239 17.8513L35.5151 15.7498C35.8189 15.5899 36.182 15.5899 36.4857 15.7498L40.4769 17.8513C41.0945 18.1765 41.8144 17.6438 41.6838 16.9581L40.8578 12.6205C40.7868 12.2476 40.9242 11.8656 41.2165 11.6235L44.3741 9.00747C44.9285 8.54814 44.6788 7.64929 43.9669 7.54177L39.7283 6.90158C39.4158 6.85437 39.1416 6.6678 38.9829 6.3944L36.7212 2.49664Z" fill="#299764"/>
<path d="M62.7212 2.49664C62.4 1.94318 61.6008 1.94318 61.2796 2.49664L59.0179 6.39439C58.8593 6.6678 58.5851 6.85437 58.2725 6.90158L54.0339 7.54177C53.322 7.64929 53.0723 8.54813 53.6267 9.00747L56.7843 11.6235C57.0766 11.8656 57.214 12.2476 57.143 12.6205L56.317 16.9581C56.1865 17.6438 56.9063 18.1765 57.5239 17.8513L61.5151 15.7498C61.8189 15.5899 62.182 15.5899 62.4857 15.7498L66.4769 17.8513C67.0945 18.1765 67.8144 17.6438 67.6838 16.9581L66.8578 12.6205C66.7868 12.2476 66.9242 11.8656 67.2165 11.6235L70.3741 9.00747C70.9285 8.54814 70.6788 7.64929 69.9669 7.54177L65.7283 6.90158C65.4158 6.85437 65.1416 6.6678 64.9829 6.3944L62.7212 2.49664Z" fill="#299764"/>
<path d="M88.7212 2.49664C88.4 1.94318 87.6008 1.94318 87.2796 2.49664L85.0179 6.39439C84.8593 6.6678 84.5851 6.85437 84.2725 6.90158L80.0339 7.54177C79.322 7.64929 79.0723 8.54813 79.6267 9.00747L82.7843 11.6235C83.0766 11.8656 83.214 12.2476 83.143 12.6205L82.317 16.9581C82.1865 17.6438 82.9063 18.1765 83.5239 17.8513L87.5151 15.7498C87.8189 15.5899 88.182 15.5899 88.4857 15.7498L92.4769 17.8513C93.0945 18.1765 93.8144 17.6438 93.6838 16.9581L92.8578 12.6205C92.7868 12.2476 92.9242 11.8656 93.2165 11.6235L96.3741 9.00747C96.9285 8.54814 96.6788 7.64929 95.9669 7.54177L91.7283 6.90158C91.4158 6.85437 91.1416 6.6678 90.9829 6.3944L88.7212 2.49664Z" fill="#299764"/>
<path d="M114.721 2.49664C114.4 1.94318 113.601 1.94318 113.28 2.49664L111.018 6.39439C110.859 6.6678 110.585 6.85437 110.273 6.90158L106.034 7.54177C105.322 7.64929 105.072 8.54813 105.627 9.00747L108.784 11.6235C109.077 11.8656 109.214 12.2476 109.143 12.6205L108.317 16.9581C108.186 17.6438 108.906 18.1765 109.524 17.8513L113.515 15.7498C113.819 15.5899 114.182 15.5899 114.486 15.7498L118.477 17.8513C119.095 18.1765 119.814 17.6438 119.684 16.9581L118.858 12.6205C118.787 12.2476 118.924 11.8656 119.217 11.6235L122.374 9.00747C122.929 8.54814 122.679 7.64929 121.967 7.54177L117.728 6.90158C117.416 6.85437 117.142 6.6678 116.983 6.3944L114.721 2.49664Z" fill="#299764"/>
</svg>
